<svg width="135" height="34" viewBox="0 0 135 34" fill="none" xmlns="http://www.w3.org/2000/svg">
<g clip-path="url(#clip0_3189_6346)">
<path d="M104.101 0H102.582V5.41448H104.101V0Z" fill="white"/>
<path d="M109.699 2.78435L107.808 0H106.524V5.41448H108.043V2.63471L109.945 5.3999L109.955 5.41448H111.218V0H109.699V2.78435Z" fill="white"/>
<path d="M117.153 0.32384C116.749 0.109026 116.264 0 115.711 0H113.641V5.41448H115.732C116.278 5.41448 116.758 5.30558 117.16 5.09064C117.563 4.87528 117.878 4.56156 118.098 4.15798C118.317 3.75533 118.428 3.26714 118.428 2.70717C118.428 2.1472 118.317 1.65887 118.097 1.25637C117.876 0.853049 117.559 0.539329 117.153 0.32384ZM115.16 1.29981H115.638C115.91 1.29981 116.143 1.34191 116.33 1.4249C116.514 1.5064 116.656 1.64943 116.752 1.8498C116.85 2.05288 116.899 2.3415 116.899 2.70717C116.899 3.07284 116.851 3.36146 116.755 3.56481C116.661 3.76518 116.522 3.90808 116.343 3.98958C116.161 4.07243 115.938 4.11453 115.68 4.11453H115.16V1.29981Z" fill="white"/>
<path d="M122.35 0H120.831V5.41448H122.35V0Z" fill="white"/>
<path d="M126.369 0L124.582 5.41448H126.22L126.529 4.39101H128.242L128.551 5.41448H130.189L128.402 0H126.369H126.369ZM126.877 3.23746L127.386 1.55376L127.894 3.23746H126.878H126.877Z" fill="white"/>
<path d="M32.2322 25.958C31.5706 25.958 31.1913 25.5536 31.1913 24.8484V11.6649L33.4705 11.4112L33.6665 9.4027H31.1438V6.49219L28.6234 6.6085L27.843 9.32228L26.0041 9.4081L25.9331 11.4047L27.54 11.66V24.8693C27.54 27.7958 29.6569 28.2327 30.9185 28.2327C32.5018 28.2327 33.5185 27.8522 33.7924 27.7357L33.873 27.7013L33.7066 25.958H32.2321H32.2322Z" fill="white"/>
<path d="M43.0801 9.94656H43.0354C41.4494 9.94656 40.0083 10.3682 38.8512 11.1687V11.0839L38.545 9.95452L34.2085 10.5556V12.2947L35.7276 12.4432V26.0525L34.4448 26.3483L34.3722 28.0271H40.6995L40.8205 26.3484L39.3787 26.0501V12.8853C39.7008 12.6711 40.0962 12.5254 40.61 12.4316L40.8394 14.4645L43.3319 14.5571L43.773 10.5467L43.08 9.94629L43.0801 9.94656Z" fill="white"/>
<path d="M123.299 11.1647L122.907 9.82533L118.066 10.379V11.9308L119.711 12.0797V24.9023C119.508 25.1953 119.317 25.4316 119.13 25.6227C118.816 25.7513 118.434 25.8164 117.995 25.8164C116.819 25.8164 116.248 25.0858 116.248 23.5826V11.1647L115.856 9.8252L111.062 10.379V11.9304L112.66 12.0793V24.0067C112.66 25.2793 113.073 28.2392 116.898 28.2392C118.4 28.2392 119.328 27.621 120.088 26.9194L120.416 28.027H124.547L124.74 26.3058L123.299 26.028L123.299 11.1647Z" fill="white"/>
<path d="M25.1314 13.86C25.1314 11.3537 23.6386 9.79688 21.2358 9.79688C19.8998 9.79688 18.7561 10.2689 17.748 11.238V10.9555L17.4085 9.95353L13.2104 10.5545V12.2937L14.8086 12.4424V26.0283L13.4467 26.3032L13.3741 28.0267H19.7173L19.8382 26.3045L18.3963 26.0275V13.2945C18.5549 13.0766 18.724 12.8554 18.9042 12.7054C19.229 12.6039 19.5127 12.5271 19.9064 12.5271C21.0232 12.5271 21.5434 13.1829 21.5434 14.5911V28.0267H26.491L26.5874 26.304L25.1316 26.0272V13.86H25.1314Z" fill="white"/>
<path d="M9.79226 22.5909L9.4332 25.9436H5.8777V15.899H7.30112L7.702 17.6162H9.5989V12.3549L7.68068 12.3075L7.30058 13.9845H5.8777V4.3834H9.40554L9.55316 7.45395L12.2059 7.52371L12.5159 2.38477H0.119146L0 4.34737L1.95842 4.6024V25.7069L0.222101 25.9815L0.127647 28.0274H12.7661L12.5676 22.6832L9.79226 22.5909Z" fill="white"/>
<path d="M134.012 9.94656H133.967C132.381 9.94656 130.94 10.3682 129.782 11.1687V11.0839L129.476 9.95452L125.14 10.5556V12.2947L126.659 12.4432V26.0525L125.376 26.3483L125.303 28.0271H131.631L131.752 26.3484L130.31 26.0501V12.8854C130.632 12.6713 131.028 12.5254 131.541 12.4316L131.77 14.4645L134.263 14.5571L134.704 10.5467L134.011 9.94629L134.012 9.94656Z" fill="white"/>
<path d="M75.8222 9.94656H75.7775C74.1916 9.94656 72.7507 10.3682 71.5932 11.1687V11.0839L71.2869 9.95452L66.9507 10.5556V12.2947L68.4699 12.4432V26.0525L67.1868 26.3483L67.1142 28.0271H73.4417L73.5624 26.3484L72.1205 26.0501V12.8854C72.443 12.6713 72.8385 12.5254 73.3525 12.4316L73.5814 14.4645L76.0743 14.5571L76.5152 10.5467L75.822 9.94629L75.8222 9.94656Z" fill="white"/>
<path d="M99.1062 13.86C99.1062 11.3537 97.6136 9.79688 95.2106 9.79688C93.8749 9.79688 92.731 10.2689 91.7227 11.238V10.9555L91.3836 9.95353L87.1855 10.5545V12.2937L88.7838 12.4424V26.0283L87.4218 26.3032L87.3495 28.0267H93.6924L93.8129 26.3045L92.3716 26.0275V13.2945C92.5296 13.0768 92.6983 12.8561 92.8793 12.7055C93.2044 12.6039 93.4882 12.5271 93.8815 12.5271C94.9986 12.5271 95.519 13.1829 95.519 14.5911V28.0267H100.466L100.562 26.304L99.1062 26.0272V13.86Z" fill="white"/>
<path d="M49.3236 9.76937C47.3858 9.73564 45.8134 10.7458 44.7678 12.6912C43.9101 14.2869 43.4145 16.5044 43.3721 18.935C43.2756 24.4689 45.5536 28.228 49.0402 28.2891C49.078 28.2897 49.1155 28.2901 49.1532 28.2901C50.7988 28.2901 52.348 27.6587 53.526 26.5053L53.5856 26.4469L52.9575 25.0522L52.8435 25.116C51.791 25.7066 50.9597 25.9405 49.981 25.9233C48.0479 25.8895 47.0757 22.9251 47.1003 19.9747L53.8652 20.0139L54.2647 19.0647L54.2742 19.0204C54.374 13.2839 52.5231 9.82564 49.3235 9.76964L49.3236 9.76937ZM47.0685 18.2031C47.1012 16.9791 47.4264 13.7687 48.0968 12.3486C48.5811 12.0311 48.8342 11.9772 49.1749 11.9832C50.2618 12.0023 50.9119 14.1548 51.0085 18.0478L47.0683 18.2031H47.0685Z" fill="white"/>
<path d="M62.215 9.89076C60.3602 9.89076 59.3399 10.8258 58.8401 11.4001V11.2664L58.4467 9.92476L54.1113 10.5258V12.1976L55.7122 12.4097V32.0653L54.3638 32.3396L54.2909 34.0001H60.6278L60.749 32.3409L59.3049 32.0642V26.8759C59.9058 27.1653 60.6791 27.3292 61.4617 27.3292C66.7465 27.3292 66.7465 20.5064 66.7465 18.2642C66.7465 14.2162 65.5561 9.89076 62.215 9.89076ZM62.5945 24.7073C62.1053 24.9438 61.5845 25.0542 60.96 25.0542C60.2876 25.0542 59.7452 24.9449 59.3051 24.7202V13.2946C59.5004 12.9958 59.7381 12.7227 59.9086 12.5352C60.2963 12.4021 60.6771 12.3399 61.1045 12.3399C62.0798 12.3399 63.1992 13.0845 63.1992 18.8906C63.1992 22.1445 62.7236 24.2825 62.5947 24.7073H62.5945Z" fill="white"/>
<path d="M82.2323 9.76937C80.2893 9.73564 78.7221 10.7458 77.6764 12.6912C76.8186 14.2868 76.323 16.5043 76.2808 18.935C76.1843 24.4689 78.4622 28.228 81.9489 28.2891C81.9867 28.2897 82.0244 28.2901 82.0619 28.2901C83.7077 28.2901 85.2566 27.6587 86.4345 26.5053L86.4944 26.4469L85.8662 25.0522L85.7523 25.116C84.6998 25.7066 83.874 25.9398 82.8897 25.9233C80.9566 25.8895 79.9843 22.9251 80.009 19.9747L86.7737 20.0139L87.1736 19.0647L87.1827 19.0204C87.2826 13.2839 85.432 9.82564 82.2323 9.76964V9.76937ZM79.9773 18.2031C80.0099 16.9793 80.3347 13.7695 81.0056 12.3486C81.4898 12.0313 81.7396 11.9773 82.0837 11.9832C83.1709 12.0023 83.8211 14.1544 83.9173 18.0478L79.9774 18.2031H79.9773Z" fill="white"/>
<path d="M106.275 9.76937C104.335 9.73564 102.765 10.7458 101.719 12.6912C100.862 14.2868 100.366 16.5043 100.324 18.935C100.227 24.4689 102.505 28.228 105.992 28.2891C106.03 28.2897 106.067 28.2901 106.105 28.2901C107.751 28.2901 109.3 27.6587 110.477 26.5053L110.537 26.4469L109.909 25.0522L109.795 25.116C108.743 25.7065 107.917 25.9395 106.933 25.9233C105 25.8895 104.027 22.9251 104.052 19.9747L110.817 20.0139L111.217 19.0647L111.226 19.0204C111.326 13.2839 109.475 9.82564 106.275 9.76964V9.76937ZM104.02 18.2031C104.053 16.9791 104.378 13.7688 105.049 12.3485C105.533 12.0309 105.785 11.9762 106.127 11.9832C107.632 12.0095 107.912 16.1397 107.96 18.0478L104.02 18.2031H104.02Z" fill="white"/>
<path d="M132.869 26.2939C132.363 26.2939 131.966 26.6908 131.966 27.1975C131.966 27.7041 132.363 28.1006 132.869 28.1006C133.376 28.1006 133.773 27.7039 133.773 27.1975C133.773 26.6911 133.376 26.2939 132.869 26.2939ZM132.869 26.538C133.239 26.538 133.517 26.8215 133.517 27.1975C133.517 27.3872 133.446 27.5529 133.328 27.6709L133.061 27.2719C133.206 27.2321 133.285 27.13 133.285 26.9804C133.285 26.7813 133.168 26.6803 132.937 26.6803H132.533V27.7148H132.715V27.2825H132.868L133.142 27.7148H133.275C133.165 27.8028 133.027 27.8565 132.869 27.8565C132.5 27.8565 132.222 27.5731 132.222 27.1975C132.222 26.8218 132.5 26.538 132.869 26.538ZM133.103 26.9802C133.103 27.1092 132.999 27.1188 132.842 27.1188H132.715V26.8438H132.903C133.082 26.8438 133.103 26.9217 133.103 26.9802Z" fill="white"/>
</g>
<defs>
<clipPath id="clip0_3189_6346">
<rect width="134.705" height="34" fill="white"/>
</clipPath>
</defs>
</svg>
